<svg xmlns="http://www.w3.org/2000/svg" xmlns:xlink="http://www.w3.org/1999/xlink" viewBox="0 0 87.23 96.44"><defs><style>.cls-1{fill:url(#radial-gradient);}.cls-2{fill:#95bcd3;}</style><radialGradient id="radial-gradient" cx="-1270.67" cy="387.31" r="0.24" gradientTransform="matrix(144, 0, 0, -144.15, 183013.9, 55879.16)" gradientUnits="userSpaceOnUse"><stop offset="0" stop-color="#ffff3e"/><stop offset="0.08" stop-color="#d49b2a"/><stop offset="0.66" stop-color="#d9cb49"/><stop offset="1" stop-color="#f2f1f1"/></radialGradient></defs><g id="Layer_2" data-name="Layer 2"><g id="Layer_1-2" data-name="Layer 1"><g id="RisingSunComponent"><ellipse id="Ellipse_1" data-name="Ellipse 1" class="cls-1" cx="38.04" cy="50.52" rx="35.09" ry="35.12"/></g><path d="M30.11,95.94c-7.1,0-14-1.93-18.7-5.2,11-1.91,22.16-8.65,33-15.17s22-13.31,32.94-15.11C71.45,76.75,59.63,88.52,43.94,93.67A44.35,44.35,0,0,1,30.11,95.94Z"/><path d="M76.53,61.11c-5.9,15.71-17.47,27.07-32.75,32.08a43.93,43.93,0,0,1-13.67,2.25A34.2,34.2,0,0,1,12.72,91c10.72-2.2,21.47-8.7,31.89-15S65.94,63.09,76.53,61.11m1.52-1.27c-22.64,3.2-45.27,27.4-67.9,30.6,4.17,3.27,11.26,6,20,6a45,45,0,0,0,14-2.3C59,89.25,71.8,78,78.05,59.84Z"/><path class="cls-2" d="M6.34,75.4a46.65,46.65,0,0,1-4.91-.25A11.47,11.47,0,0,1,.7,68.54a19,19,0,0,1,3.24-7.05c13.39-2.92,27-12.3,40.06-21.38C56.94,31.16,70.32,21.9,83.42,19q.63,2.4,1.26,4.84c.1.42.18.81.25,1.18s.16.76.23,1.13c.18.87.33,1.76.48,2.65.11.63.21,1.27.29,1.89,0,.35.1.68.14,1,.08.53.14,1.06.21,1.59l0,.42c.07.56.13,1.14.18,1.72.1.94.17,1.89.23,2.83-.06,4.82-.12,9.65-.2,14.43v.1c0,.18,0,.29,0,.39l-.09.76c-.15,1.11-.3,2.22-.46,3.33A47.77,47.77,0,0,0,81.09,57c-12.54,0-25.26,4.69-37.55,9.23S18.71,75.4,6.34,75.4Z"/><path d="M83.06,19.55,84.2,23.9v0h0q.12.56.24,1.14l.21,1.05v.06c.15.74.3,1.55.48,2.64.11.67.21,1.3.29,1.89,0,.33.1.66.14,1,.07.52.14,1,.2,1.58l0,.16c0,.09,0,.18,0,.24.06.56.12,1.13.17,1.74.11,1,.18,2,.23,2.76q-.09,7.23-.2,14.37v.21c0,.08,0,.17,0,.29l0,.37,0,.22,0,.15c-.13.95-.26,1.91-.39,2.85-1.43-.13-2.91-.19-4.4-.19-12.64,0-25.39,4.71-37.72,9.26-12.17,4.5-24.75,9.14-37,9.14-1.54,0-3.07-.07-4.55-.21a11,11,0,0,1-.6-6.06,18.24,18.24,0,0,1,3.05-6.7c13.43-3,27-12.35,40.05-21.41C57,31.7,70.2,22.59,83.06,19.55m.73-1.19C57.07,24.07,30.35,55.34,3.64,61A20.1,20.1,0,0,0,.2,68.44a12.18,12.18,0,0,0,.88,7.18,48.92,48.92,0,0,0,5.26.28c24.92,0,49.83-18.4,74.75-18.4a48.78,48.78,0,0,1,5.26.28l.05-.32c.16-1.16.32-2.32.47-3.49l0-.38c0-.12,0-.24,0-.36s0-.27,0-.4l0-.16q.12-7.19.2-14.47c-.06-1-.14-1.9-.24-2.84,0-.59-.1-1.17-.17-1.75,0-.13,0-.28,0-.41-.06-.54-.13-1.07-.2-1.59,0-.35-.09-.69-.15-1-.08-.63-.18-1.28-.29-1.91-.15-.9-.3-1.79-.48-2.66-.07-.38-.14-.76-.23-1.13s-.15-.77-.24-1.15v-.07q-.7-2.67-1.38-5.3Z"/><path class="cls-2" d="M12,28.9a11.91,11.91,0,0,1-3.3-.38C14.24,26,20.9,21.24,27.92,16.18,33.07,12.47,38.4,8.63,44,5.15,48.93,2.07,53.68.5,58.09.5,66.19.5,73.2,5.7,78.92,16a12.8,12.8,0,0,0-3.38-.38c-7,0-19.6,3.38-31.76,6.64S19,28.9,12,28.9Z"/><path d="M58.09,0V1c7.66,0,14.32,4.8,19.85,14.26a17.27,17.27,0,0,0-2.41-.16c-7.08,0-19.13,3.24-31.88,6.66C31.49,25,18.92,28.4,12,28.4c-.62,0-1.19,0-1.7-.08,5.23-2.59,11.18-6.88,17.91-11.73,5.15-3.71,10.47-7.54,16-11C49.11,2.54,53.77,1,58.09,1V0m0,0c-4.58,0-9.4,1.63-14.37,4.73-14,8.72-26.8,20-36.29,23.79A9.16,9.16,0,0,0,12,29.4c14.08,0,49.6-13.3,63.54-13.3A9,9,0,0,1,80,17C73.9,5.35,66.4,0,58.09,0Z"/><path d="M77.39,11.32c.39.58.77,1.19,1.18,1.86s.92,1.55,1.31,2.3c.21.36.42.74.68,1.23s.53,1,.77,1.52l.06.11c.21.43.43.87.63,1.31.35.72.72,1.54,1.17,2.57l0,.08c.13.3.26.61.4,1q.11.24.21.51L84,24l.12.3.48,1.24h0l0,.11c.07.16.13.33.19.49C83,26.09,81.11,26,79.21,26c-11.92,0-24,2.07-35.67,4.07s-23.58,4-35.33,4c-1.53,0-3,0-4.53-.1l.26-.22.05,0,.45-.36c.66-.54,1.37-1.11,2.12-1.69l.67-.53.1-.07c.25-.21.52-.41.79-.62l.47-.37.88-.69.4-.31c4.87,0,19.25-4.39,34.47-9,13.95-4.25,28.37-8.64,33.05-8.79m.24-1c-9.17,0-58.42,17.82-67.78,17.82H9.53L8,29.34l-1.27,1-.77.6c-.74.58-1.45,1.15-2.13,1.7L3.36,33l-.67.56L2,34.11c-.3.26-.59.51-.87.77q3.52.25,7.05.25c23.67,0,47.34-8.1,71-8.1,2.35,0,4.7.08,7.06.26-.24-.66-.48-1.31-.74-2a.16.16,0,0,0,0-.09l-.61-1.57c-.12-.28-.23-.55-.35-.81s-.29-.7-.43-1c-.39-.89-.78-1.76-1.18-2.6-.23-.48-.47-1-.7-1.43s-.52-1-.79-1.54S81,15.39,80.75,15c-.43-.8-.88-1.57-1.33-2.31s-1-1.59-1.5-2.34Z"/><path d="M82.78,49.56l-.06.64c0,.15,0,.29,0,.41l-.07.6c0,.34-.07.67-.11,1,0,.16,0,.31-.07.47-.07.55-.15,1.11-.24,1.67S82,55.49,81.9,56v.06c0,.2-.06.39-.11.61-.1.47-.19.93-.31,1.41s-.23,1-.35,1.51l-.09.32-.24.89c-.25.9-.5,1.71-.77,2.49s-.44,1.27-.68,1.89h-.06c-11.94,0-24,2.11-35.74,4.14S19.92,73.47,8.15,73.47H7.86l-.64-.72c-.2-.23-.39-.46-.55-.68s-.34-.45-.51-.72a5.32,5.32,0,0,1-.43-.68,5.24,5.24,0,0,1-.32-.57l0,0,0,0a4.11,4.11,0,0,1-.21-.42A6.14,6.14,0,0,1,4.9,69l0-.09C18,67.68,31.21,63.35,44,59.17s25.86-8.44,38.75-9.61m1.08-1.1C57.1,50.5,30.33,65.94,3.57,68c0,.19.09.38.14.57l.06.21c.06.19.12.38.2.57s.17.44.27.67a4.3,4.3,0,0,0,.27.52,5.69,5.69,0,0,0,.37.68,8.09,8.09,0,0,0,.46.73c.16.25.34.49.52.74l.59.73,1,1.07h.73c23.71,0,47.42-8.26,71.13-8.26H80c.34-.83.67-1.69,1-2.57s.54-1.68.79-2.55c.11-.4.21-.81.32-1.21s.26-1,.37-1.56.21-.94.31-1.43q.08-.33.12-.66c.11-.56.21-1.14.3-1.72s.17-1.13.25-1.69a3.47,3.47,0,0,1,.06-.45c.07-.55.12-1.09.18-1.65,0-.14,0-.27,0-.41,0-.61.1-1.23.14-1.85Z"/></g></g></svg>