<svg xmlns="http://www.w3.org/2000/svg" viewBox="0 0 152 152"><defs><style>.cls-1{fill:#96bdd3;}.cls-2,.cls-5{fill:#010101;}.cls-3,.cls-4{fill:#fff;}.cls-3,.cls-5{stroke:#010101;stroke-miterlimit:10;}.cls-6{fill:none;}</style></defs><g id="Layer_2" data-name="Layer 2"><g id="Layer_1-2" data-name="Layer 1"><path class="cls-1" d="M76.5,152A75.5,75.5,0,1,1,152,76.5,75.59,75.59,0,0,1,76.5,152Zm0-137.94A62.44,62.44,0,1,0,138.94,76.5,62.51,62.51,0,0,0,76.5,14.06Zm-.06,121.88a59.5,59.5,0,1,1,59.5-59.5A59.57,59.57,0,0,1,76.44,135.94ZM76.5,32.5A44.17,44.17,0,0,0,41.19,50.26q-.16.21-.33.45c-.45.6-.86,1.22-1.28,1.84s-.69,1.09-1,1.65c-.19.32-.4.67-.58,1a34.06,34.06,0,0,0-1.55,3.08c-.1.2-.21.43-.31.67l-.45,1.09c-.14.35-.29.73-.43,1.1s-.27.75-.4,1.13l-.14.43a44.06,44.06,0,0,0-.22,26.87l.15.45c.1.38.25.78.39,1.18l.18.49c.13.36.26.72.41,1.07s.35.88.54,1.32.31.7.49,1,.39.86.62,1.29.47.92.73,1.37.5.89.76,1.33.54.88.82,1.31.67,1,1,1.41l.31.44.35.46a44,44,0,0,0,70.61,0q.16-.21.33-.45c.44-.59.87-1.21,1.27-1.84s.75-1.18,1.1-1.79l.48-.84c.21-.36.4-.73.59-1.1s.33-.64.49-1a4.16,4.16,0,0,0,.22-.48c.18-.36.37-.76.53-1.16s.33-.76.48-1.15c0-.08.07-.17.12-.26l.43-1.14a1.45,1.45,0,0,1,.09-.25c.16-.44.31-.86.43-1.29.1-.28.2-.58.28-.89a3.88,3.88,0,0,0,.13-.44q.15-.47.27-1l0-.06v-.06a6.67,6.67,0,0,0,.2-.8,2.24,2.24,0,0,0,.06-.23l0-.13a43.44,43.44,0,0,0,1.14-10c0-.65,0-1.3,0-1.94,0-.39,0-.79-.06-1.19,0,0,0-.24,0-.3,0-.35-.06-.71-.1-1.07s0-.47-.08-.71c0-.42-.1-.87-.18-1.31-.09-.61-.19-1.23-.31-1.84l-.16-.79c-.05-.25-.11-.53-.17-.79-.1-.46-.21-.86-.32-1.27s-.18-.69-.28-1-.11-.41-.19-.64-.19-.62-.3-.94-.26-.81-.42-1.22v0l-.07-.16-.37-1s-.19-.47-.24-.58-.18-.45-.28-.68c-.27-.63-.55-1.24-.84-1.82-.16-.33-.33-.67-.51-1s-.36-.69-.56-1-.37-.68-.57-1c-.27-.49-.61-1-1-1.68s-.8-1.2-1.23-1.78a44.17,44.17,0,0,0-4.54-5.32l-.44-.45A43.79,43.79,0,0,0,76.5,32.5Z" transform="translate(-0.5 -0.5)"/><path class="cls-2" d="M76.5,1.5a75,75,0,1,1-75,75,75.08,75.08,0,0,1,75-75m0,137.94A62.94,62.94,0,1,0,13.56,76.5,63,63,0,0,0,76.5,139.44m-.06-122a59,59,0,1,1-59,59,59.07,59.07,0,0,1,59-59m-41.83,44H34l-.23.69a44.54,44.54,0,0,0-.07,27.62l.22.69h.29c.1.32.22.64.34,1l.15.42c.14.38.28.76.43,1.12s.37.94.56,1.36.3.68.48,1,.42.91.63,1.31.48.94.73,1.37.52.93.78,1.38.55.88.83,1.32.68,1,1,1.41.32.46.33.47l.33.44a44.49,44.49,0,0,0,71.41,0l.35-.47c.45-.62.88-1.25,1.28-1.86s.72-1.15,1.12-1.82l.17-.31.31-.53c.2-.35.39-.72.58-1.1s.34-.66.49-1,.17-.34.24-.51c.21-.41.39-.81.53-1.16s.34-.79.5-1.18l.09-.22,0-.05,0,0,.2-.56.22-.57.06-.18,0,0v0c.17-.46.31-.88.42-1.28s.2-.58.29-.89.09-.31.12-.43c.11-.34.21-.67.29-1l0-.07c.07-.27.13-.54.19-.82a2.68,2.68,0,0,0,.07-.27l0-.14a44.19,44.19,0,0,0,1.15-10c0-.8,0-1.41,0-1.94s0-.82-.07-1.26v-.08c0-.07,0-.14,0-.19,0-.36-.07-.73-.1-1s-.06-.5-.08-.71c0-.42-.1-.88-.18-1.36-.11-.72-.21-1.31-.32-1.87,0-.27-.1-.54-.16-.77s-.11-.55-.17-.79V66.4c-.1-.41-.2-.83-.32-1.24l-.27-1c-.06-.23-.12-.45-.19-.64s-.2-.64-.31-1-.27-.85-.44-1.29a1.16,1.16,0,0,0-.06-.15l-.39-1.05-.08-.2c-.05-.11-.09-.23-.14-.34l-.3-.72c-.32-.74-.58-1.31-.84-1.82-.16-.33-.34-.67-.51-1s-.39-.74-.59-1.11-.34-.61-.55-.94c-.3-.53-.63-1.07-1-1.72S113,51,112.57,50.44A46.22,46.22,0,0,0,108,45.05l-.46-.46A44.5,44.5,0,0,0,40.8,49.94l-.35.47c-.46.62-.89,1.27-1.29,1.88s-.7,1.08-1,1.63c-.17.29-.4.67-.59,1A33,33,0,0,0,36,58.05c-.12.24-.23.47-.34.73s-.31.73-.44,1.08-.3.75-.44,1.12l-.18.46M76.5.5a76,76,0,1,0,76,76,76,76,0,0,0-76-76Zm0,137.94A61.94,61.94,0,1,1,138.44,76.5,61.94,61.94,0,0,1,76.5,138.44Zm-.06-122a60,60,0,1,0,60,60,60,60,0,0,0-60-60ZM33,76.5a43.22,43.22,0,0,1,2.18-13.62l.15-.44c.12-.37.25-.74.39-1.1s.28-.74.43-1.1.29-.72.44-1.07.2-.45.31-.67c.46-1,1-2.06,1.53-3,.18-.34.38-.68.58-1,.31-.55.65-1.08,1-1.61s.82-1.23,1.26-1.83l.33-.44a43.49,43.49,0,0,1,65.23-5.25l.45.45A44.31,44.31,0,0,1,111.76,51c.42.57.82,1.15,1.21,1.75s.71,1.11,1,1.68c.19.3.36.6.53.91s.4.72.58,1.08.34.66.5,1c.29.58.56,1.18.82,1.78.1.23.2.46.29.7s.15.36.23.55l.39,1.05a.14.14,0,0,1,0,.06c.17.43.32.86.45,1.3s.21.62.3.93.13.41.18.62.19.66.28,1,.21.8.3,1.2v0c.06.26.12.53.17.79s.11.52.16.78c.12.6.22,1.21.31,1.82.07.43.13.87.17,1.3,0,.23.06.46.08.7s.07.71.1,1.07c0,.09,0,.19,0,.28,0,.39,0,.78.06,1.18,0,.63,0,1.27,0,1.91a43,43,0,0,1-1.12,9.82l0,.11a2.86,2.86,0,0,1-.07.28c-.06.28-.12.55-.19.82a.31.31,0,0,0,0,.08c-.08.32-.17.63-.27,1,0,.15-.08.29-.13.44s-.18.59-.28.88-.26.83-.41,1.23c0,.09-.07.18-.1.27l-.41,1.1c0,.1-.09.2-.13.3q-.23.57-.48,1.14c-.16.39-.34.78-.53,1.16a4.54,4.54,0,0,1-.21.45c-.16.33-.32.65-.49,1s-.37.72-.57,1.07l-.48.84c-.35.6-.71,1.19-1.09,1.77s-.82,1.23-1.25,1.82l-.33.44a43.48,43.48,0,0,1-69.82,0l-.33-.44-.31-.44c-.29-.41-.7-1-1-1.39s-.55-.86-.81-1.29-.52-.88-.76-1.33-.49-.89-.72-1.35-.43-.86-.62-1.29-.32-.67-.47-1-.37-.87-.54-1.31-.29-.75-.43-1.13l-.15-.41c-.14-.39-.28-.78-.39-1.17L35,89.44h-.3a43.56,43.56,0,0,1,.07-27h.59l-.15.44A43.22,43.22,0,0,0,33,76.5Zm0,0a42.91,42.91,0,0,0,2,12.94A42.91,42.91,0,0,1,33,76.5Z" transform="translate(-0.5 -0.5)"/><path class="cls-3" d="M32.56,76.06a42.93,42.93,0,0,0,2.11,13.38h-.12c-.09-.23-.16-.46-.23-.7a43.7,43.7,0,0,1,0-25.36c.09-.32.19-.63.3-.94h.12A43.22,43.22,0,0,0,32.56,76.06Z" transform="translate(-0.5 -0.5)"/><path class="cls-3" d="M118.2,86.78c-.16.64-.39,1.5-.6,2.17a2,2,0,0,1-.08.26Z" transform="translate(-0.5 -0.5)"/><path class="cls-3" d="M118.43,66.18l-1.06-3.74q.16.47.3.93c.07.21.13.41.18.62s.19.66.28,1S118.34,65.78,118.43,66.18Z" transform="translate(-0.5 -0.5)"/><path class="cls-2" d="M76.44,120.94a42,42,0,0,1-34-18h68.08A42,42,0,0,1,76.44,120.94Z" transform="translate(-0.5 -0.5)"/><path class="cls-2" d="M109.5,103.44a41.45,41.45,0,0,1-33.06,17,41.45,41.45,0,0,1-33.06-17H109.5m1.94-1h-70c7.85,11.52,20.61,19,35,19s27.15-7.48,35-19Z" transform="translate(-0.5 -0.5)"/><path class="cls-4" d="M40.82,101.56H39.56V99.73C40,100.35,40.82,101.56,40.82,101.56Z" transform="translate(-0.5 -0.5)"/><path class="cls-2" d="M39.56,99.73v1.83h1.26s-.85-1.21-1.26-1.83Z" transform="translate(-0.5 -0.5)"/><path class="cls-4" d="M40.82,50.56c-.44.6-.85,1.21-1.26,1.83V50.56Z" transform="translate(-0.5 -0.5)"/><path class="cls-2" d="M40.82,50.56H39.56v1.83c.41-.62.82-1.23,1.26-1.83Z" transform="translate(-0.5 -0.5)"/><path class="cls-2" d="M76.44,17.44a59,59,0,1,1-59,59,59.07,59.07,0,0,1,59-59M35.75,94.9c.2.46.42.91.63,1.31s.48.94.73,1.37.52.93.78,1.38.55.88.84,1.32c.41.63,1.27,1.85,1.27,1.85l.3.43h71.51l.3-.41c.45-.62.88-1.25,1.28-1.86s.73-1.15,1.12-1.82l.3-.54.18-.3c.19-.35.39-.72.58-1.1s.34-.66.49-1,.17-.34.24-.51c.21-.41.39-.81.53-1.16s.34-.79.5-1.18l.09-.22,0,0,0,0,.2-.55.22-.58.06-.18,0-.06v0l.42-1.25.07-.25.69-2.44.06-.25.06-.2c0-.11.06-.23.08-.34l0-.11,0-.07V86l1.12-9.82v-.11c0-.8,0-1.41,0-1.94s0-.82-.07-1.26v-.08a1.28,1.28,0,0,1,0-.18c0-.37-.07-.74-.1-1.06s-.06-.5-.08-.71c0-.42-.1-.88-.18-1.36-.11-.7-.21-1.32-.32-1.86,0-.27-.1-.54-.16-.78s-.11-.55-.17-.8v-.12l-1.07-3.77c-.13-.42-.27-.84-.44-1.28a.85.85,0,0,0-.06-.17l-.16-.44-.23-.61-.08-.2c0-.11-.09-.23-.14-.34l-.3-.72c-.32-.74-.58-1.31-.84-1.82-.16-.33-.34-.67-.51-1s-.39-.74-.59-1.11-.34-.61-.55-.94c-.29-.52-.63-1.07-1-1.72s-.82-1.22-1.24-1.78a44.34,44.34,0,0,0-4.15-5l-.45-.45a44.19,44.19,0,0,0-31.47-13A44.64,44.64,0,0,0,40,50c-.45.62-.89,1.27-1.29,1.88s-.7,1.08-1,1.63c-.17.29-.4.67-.59,1a33,33,0,0,0-1.55,3.09c-.12.24-.23.47-.34.73s-.31.73-.44,1.08-.3.75-.45,1.13c-.2.55-.38,1.07-.55,1.58a44.58,44.58,0,0,0-.08,27.6l.27.82.15.42c0,.12.09.24.14.4.15.39.29.78.44,1.14s.37.94.56,1.35.3.69.48,1M76.44,16.44a60,60,0,1,0,60,60,60,60,0,0,0-60-60ZM40.82,101.56s-.85-1.21-1.26-1.83q-.42-.65-.81-1.29c-.26-.44-.52-.88-.76-1.33s-.49-.89-.72-1.35-.43-.86-.62-1.29-.32-.67-.47-1-.37-.87-.54-1.31-.29-.75-.43-1.13l-.15-.41c-.13-.39-.27-.78-.39-1.17a43.56,43.56,0,0,1,.07-27c.17-.52.35-1,.54-1.54s.28-.74.43-1.1.29-.72.44-1.07.2-.45.31-.67c.46-1,1-2.06,1.53-3.05.18-.34.38-.68.58-1,.31-.55.65-1.08,1-1.61s.82-1.23,1.26-1.83a43.49,43.49,0,0,1,66-5.25l.45.45a43.52,43.52,0,0,1,4,4.83c.42.57.82,1.15,1.21,1.75s.71,1.11,1,1.68c.19.3.36.6.53.91s.4.72.58,1.08.34.66.5,1c.29.58.56,1.18.82,1.78.1.23.2.46.29.7s.15.36.23.55l.39,1a.14.14,0,0,1,0,.06c.16.43.31.86.45,1.3l1.06,3.74v0c.06.26.12.53.17.79s.11.52.16.78c.12.6.22,1.21.31,1.82.07.43.13.87.17,1.3,0,.23.06.46.08.7s.07.71.1,1.07c0,.09,0,.19,0,.28,0,.39,0,.78.06,1.18,0,.63,0,1.27,0,1.91l-1.12,9.82,0,.11a2.86,2.86,0,0,1-.07.28l-.07.25-.07.26-.68,2.43-.07.23c-.13.41-.27.82-.41,1.23,0,.09-.07.18-.1.27l-.41,1.1c0,.1-.09.2-.13.3q-.23.57-.48,1.14c-.16.39-.34.78-.53,1.16a4.54,4.54,0,0,1-.21.45c-.16.33-.32.65-.49,1s-.37.72-.57,1.07l-.48.84c-.35.6-.71,1.19-1.09,1.77s-.82,1.23-1.25,1.82Z" transform="translate(-0.5 -0.5)"/><path class="cls-1" d="M35,88.94a42.52,42.52,0,0,1-2-12.88,43,43,0,0,1,2-13.12H117l1,3.38c.06.28.12.54.17.79s.11.51.15.75c.13.63.23,1.23.32,1.83.07.43.12.86.16,1.28,0,.24.06.46.08.69s.07.72.1,1.07l0,.29q0,.56.06,1.14c0,.64,0,1.27,0,1.9l-1.12,9.76v0c0,.13,0,.19-.06.25l-.79,2.83Z" transform="translate(-0.5 -0.5)"/><path class="cls-2" d="M116.61,63.44l.85,3v0c0,.24.11.5.17.78l.15.76c.1.52.2,1.08.3,1.78.08.45.13.86.17,1.27,0,.21,0,.43.08.68s.06.69.1,1.07v.08c0,.07,0,.14,0,.17,0,.37,0,.74.06,1.16s0,1.07,0,1.79l-1.1,9.69v0l0,.06v0a1.25,1.25,0,0,1,0,.18l-.08.26-.06.25-.54,1.93H35.4a42.61,42.61,0,0,1,.07-25h81.14m.76-1H34.74a43.56,43.56,0,0,0-.07,27h82.78l.07-.23.68-2.43.07-.26.07-.25a2.86,2.86,0,0,0,.07-.28l0-.11,1.12-9.82c0-.64,0-1.28,0-1.91,0-.4,0-.79-.06-1.18,0-.09,0-.19,0-.28,0-.36-.06-.72-.1-1.07s0-.47-.08-.7c0-.43-.1-.87-.17-1.3-.09-.61-.19-1.22-.31-1.82,0-.26-.1-.52-.16-.78s-.11-.53-.17-.79v0l-1.06-3.74Z" transform="translate(-0.5 -0.5)"/><path class="cls-1" d="M94.41,50.12c-18.25,0-44.77,0-52.6-.06a43,43,0,0,1,68.52,0Z" transform="translate(-0.5 -0.5)"/><path class="cls-2" d="M76.06,33.56a42.63,42.63,0,0,1,33.25,16l-14.88,0c-17.51,0-42.81,0-51.6-.06a42.66,42.66,0,0,1,33.23-16m0-1a43.43,43.43,0,0,0-35.24,18c6.27,0,34.5.06,53.61.06,7.95,0,14.33,0,16.89,0a43.44,43.44,0,0,0-35.26-18Z" transform="translate(-0.5 -0.5)"/><path class="cls-2" d="M41.33,51.56c7,0,34.47.06,53.1.06,8.29,0,13.79,0,16.38,0,.3.42.59.84.88,1.3.41.62.72,1.13,1,1.62v0l0,0c.17.28.33.56.5.86s.38.69.56,1,.33.64.5,1,.49,1,.79,1.73c.1.21.19.43.27.65v0l0,0,.13.31.07.18.2.52.15.41h0l0,.12H36.15c0-.06,0-.12.07-.19.13-.36.27-.72.42-1.09s.28-.7.43-1,.18-.42.3-.67c.46-1,1-2,1.5-3,.19-.35.39-.7.57-1,.3-.52.64-1.05,1-1.55s.64-.95.94-1.38m-.51-1c-.44.6-.85,1.21-1.26,1.83s-.68,1.06-1,1.61c-.2.33-.4.67-.58,1-.56,1-1.07,2-1.53,3.05-.11.22-.21.44-.31.67s-.3.71-.44,1.07-.29.73-.43,1.1-.37,1-.54,1.54h82.63c-.14-.44-.29-.87-.45-1.3a.14.14,0,0,0,0-.06l-.39-1c-.08-.19-.15-.37-.23-.55s-.19-.47-.29-.7c-.26-.6-.53-1.2-.82-1.78-.16-.33-.33-.66-.5-1s-.38-.72-.58-1.08-.34-.61-.53-.91c-.32-.57-.67-1.13-1-1.68s-.79-1.18-1.21-1.75c-2.56,0-8.93,0-16.89,0-19.11,0-47.34,0-53.61-.06Z" transform="translate(-0.5 -0.5)"/><path class="cls-2" d="M116.06,90.44a1.56,1.56,0,0,0-.06.15l-.2.56-.19.5a3.09,3.09,0,0,0-.14.32c-.14.37-.3.74-.47,1.11s-.33.75-.5,1.11l0,0,0,0a4.11,4.11,0,0,1-.18.38c-.15.32-.31.63-.48,1s-.37.71-.55,1l-.47.84c-.38.63-.72,1.2-1.07,1.73s-.6.91-.92,1.36H41.34c-.28-.4-.69-1-.94-1.38s-.54-.84-.79-1.25-.51-.86-.75-1.31-.47-.86-.7-1.32-.4-.8-.6-1.23V94c-.16-.3-.3-.62-.45-1s-.34-.82-.52-1.29-.29-.73-.42-1.1l-.09-.23h80m1.39-1H34.67c.12.39.26.78.39,1.17l.15.41c.14.38.28.76.43,1.13s.35.88.54,1.31.3.68.47,1,.4.87.62,1.29.47.91.72,1.35.5.89.76,1.33.53.86.81,1.29c.41.62,1.26,1.83,1.26,1.83H111.3c.43-.59.85-1.2,1.25-1.82s.74-1.17,1.09-1.77l.48-.84c.2-.35.39-.71.57-1.07s.33-.64.49-1a4.54,4.54,0,0,0,.21-.45c.19-.38.36-.77.53-1.16s.33-.76.48-1.14c0-.1.08-.2.13-.3l.41-1.1c0-.09.06-.18.1-.27.14-.41.28-.82.41-1.23Z" transform="translate(-0.5 -0.5)"/><path class="cls-3" d="M118.43,66.18l-1.06-3.74q.16.47.3.93c.07.21.13.41.18.62s.19.66.28,1S118.34,65.78,118.43,66.18Z" transform="translate(-0.5 -0.5)"/><path class="cls-5" d="M118.34,86.27c-.06.28-.12.55-.19.82a.31.31,0,0,0,0,.08c-.08.32-.17.63-.27,1,0,.15-.08.29-.13.44s-.08.26-.13.39a2,2,0,0,1-.08.26l.68-2.43.07-.26Z" transform="translate(-0.5 -0.5)"/><circle class="cls-6" cx="75.94" cy="75.94" r="60"/></g></g></svg>