<svg xmlns="http://www.w3.org/2000/svg" viewBox="0 0 561.82 642.93"><defs><style>.cls-1{fill:#010101;stroke:#3d7691;}.cls-1,.cls-2{stroke-miterlimit:10;stroke-width:5px;}.cls-2{fill:#858132;stroke:#020303;}</style></defs><g id="Layer_2" data-name="Layer 2"><g id="Layer_1-2" data-name="Layer 1"><path class="cls-1" d="M280.91,284.82a36.65,36.65,0,1,0,36.65,36.65A36.69,36.69,0,0,0,280.91,284.82Zm0,57.4a20.76,20.76,0,1,1,20.76-20.76A20.75,20.75,0,0,1,280.91,342.22Z"/><path class="cls-1" d="M482.69,424.71l1.35-2.34a6.55,6.55,0,0,0-10.11-8.11,214.05,214.05,0,0,0,0-185.57,6.56,6.56,0,0,0,10.11-8.12l-1.35-2.33c31-11.93,69.94-23.43,75.94-43.57a16.14,16.14,0,0,0-11.72-20.31c-20.45-4.88-49.87,23.08-75.71,44L469.86,196a6.56,6.56,0,0,0-12,4.87,214.27,214.27,0,0,0-160.7-93,6.56,6.56,0,0,0-2-12.8h-2.7c5.18-32.82,14.68-72.28.24-87.56a16.16,16.16,0,0,0-23.45,0c-14.44,15.28-4.94,54.74.24,87.56h-2.7a6.57,6.57,0,0,0-6.57,6.57,6.49,6.49,0,0,0,1.29,3.89,6.61,6.61,0,0,0,3.26,2.34A214.24,214.24,0,0,0,104,200.84,6.56,6.56,0,0,0,92,196l-1.35,2.34c-25.83-20.9-55.26-48.87-75.7-44A16.16,16.16,0,0,0,3.21,174.62c6,20.14,44.92,31.65,75.94,43.58l-1.35,2.34a6.55,6.55,0,0,0,10.11,8.11,214.08,214.08,0,0,0,0,185.58,6.55,6.55,0,0,0-10.11,8.11l1.35,2.34C48.1,436.6,9.18,448.1,3.17,468.24a16.16,16.16,0,0,0,11.72,20.31c20.45,4.87,49.88-23.08,75.72-44L92,446.91a6.55,6.55,0,0,0,12-4.86,214.27,214.27,0,0,0,160.69,93,6.56,6.56,0,0,0,2,12.8h2.7c-5.19,32.82-14.69,72.28-.25,87.55a16.15,16.15,0,0,0,23.45,0c14.45-15.27,4.95-54.74-.23-87.56h2.7a6.56,6.56,0,0,0,2-12.8,214.23,214.23,0,0,0,160.71-92.95,6.55,6.55,0,0,0,12,4.86l1.35-2.33c25.83,20.9,55.26,48.86,75.71,44a16.14,16.14,0,0,0,11.72-20.3C552.63,448.14,513.7,436.64,482.69,424.71Zm-189.89-260a5,5,0,0,0,5-5v-3.26a5,5,0,0,0-2.87-4.5,170.15,170.15,0,0,1,125.67,72.56,5,5,0,0,0-5.2-.16L412.55,226a5,5,0,0,0-1.82,6.81,1.71,1.71,0,0,1-.83,2.44c-7.06,2.88-18.47,3.95-35,13.48s-23.15,18.88-29.18,23.56a1.71,1.71,0,0,1-2.52-.51,5,5,0,0,0-6.81-1.82l-2.83,1.63a5,5,0,0,0-1.82,6.81L328,276.81a4.4,4.4,0,0,0-3.92.24l-3.88,2.25a57.5,57.5,0,0,0-22.44-13v-4.46a4.38,4.38,0,0,0-1.75-3.52l-3.23-2.45a5,5,0,0,0,5-5v-3.26a5,5,0,0,0-5-5,1.71,1.71,0,0,1-1.72-1.7,2,2,0,0,1,0-.23c1-7.56,5.81-18,5.81-37s-4.77-29.49-5.81-37.05A1.71,1.71,0,0,1,292.8,164.71Zm31.36,156.73a43.25,43.25,0,1,1-43.25-43.24A43.3,43.3,0,0,1,324.16,321.44ZM280.91,119.08a10.26,10.26,0,1,1-10.25,10.25A10.25,10.25,0,0,1,280.91,119.08Zm-14,32.88a5,5,0,0,0-2.88,4.5v3.26a5,5,0,0,0,5,5,1.71,1.71,0,0,1,1.7,1.93c-1,7.56-5.81,18-5.81,37.05s4.77,29.48,5.81,37a1.71,1.71,0,0,1-1.7,1.93,5,5,0,0,0-5,5v3.26a5,5,0,0,0,5,5l-3.24,2.45a4.4,4.4,0,0,0-1.75,3.52v4.46a57.59,57.59,0,0,0-22.42,13L237.73,277a4.4,4.4,0,0,0-3.92-.24l-3.73,1.58a5,5,0,0,0-1.83-6.81l-2.82-1.63a5,5,0,0,0-6.81,1.82,1.71,1.71,0,0,1-1.49.86,1.67,1.67,0,0,1-1-.35c-6-4.68-12.67-14-29.18-23.56s-27.92-10.61-35-13.5a1.7,1.7,0,0,1-.82-2.43,5,5,0,0,0-1.83-6.81l-2.82-1.63a5,5,0,0,0-5.2.15A170.14,170.14,0,0,1,266.92,152ZM114.59,215.15a10.26,10.26,0,1,1-10.26,10.25A10.25,10.25,0,0,1,114.59,215.15Zm-.08,212.64a10.25,10.25,0,1,1,10.26-10.25A10.25,10.25,0,0,1,114.51,427.79Zm24.7-38.26a5,5,0,0,0-6.81-1.82l-2.82,1.63a5,5,0,0,0-2.47,4.7,169.88,169.88,0,0,1,0-145.18,5,5,0,0,0,2.46,4.69l2.83,1.63a5,5,0,0,0,6.81-1.82,1.71,1.71,0,0,1,2.52-.51c6,4.68,12.66,14,29.17,23.56s27.92,10.61,35,13.5a1.7,1.7,0,0,1,.82,2.44,5,5,0,0,0,1.82,6.81l2.83,1.63a5,5,0,0,0,6.81-1.83l.5,4a4.39,4.39,0,0,0,2.17,3.27l3.88,2.24a57.63,57.63,0,0,0,0,25.91l-3.88,2.24a4.44,4.44,0,0,0-2.17,3.28l-.5,4a5,5,0,0,0-6.81-1.82l-2.82,1.63a5,5,0,0,0-1.83,6.81,1.71,1.71,0,0,1-.82,2.43c-7.07,2.89-18.48,4-35,13.49S147.76,385.36,141.73,390A1.71,1.71,0,0,1,139.21,389.53ZM269,478.22a5,5,0,0,0-5,5v3.26a5,5,0,0,0,2.88,4.51A170.16,170.16,0,0,1,141.24,418.4a5,5,0,0,0,5.2.16l2.83-1.63a5,5,0,0,0,1.82-6.81,1.71,1.71,0,0,1,.83-2.44c7.06-2.88,18.47-3.95,35-13.48s23.15-18.88,29.18-23.55a1.71,1.71,0,0,1,2.53.5,5,5,0,0,0,6.81,1.83l2.82-1.63a5,5,0,0,0,1.82-6.81l3.74,1.58a4.44,4.44,0,0,0,3.92-.25l3.89-2.24a57.58,57.58,0,0,0,22.43,13v4.46a4.42,4.42,0,0,0,1.75,3.52L269,387a5,5,0,0,0-5,5v3.26a5,5,0,0,0,5,5,1.71,1.71,0,0,1,1.72,1.7,2,2,0,0,1,0,.23c-1,7.56-5.81,18-5.81,37s4.77,29.49,5.81,37.05A1.71,1.71,0,0,1,269,478.22Zm11.87,45.63a10.26,10.26,0,1,1,10.25-10.25A10.25,10.25,0,0,1,280.89,523.85Zm14-32.88a5,5,0,0,0,2.88-4.5v-3.26a5,5,0,0,0-5-5,1.71,1.71,0,0,1-1.7-1.93c1-7.56,5.81-18,5.81-37.05s-4.77-29.48-5.81-37a1.71,1.71,0,0,1,1.7-1.93,5,5,0,0,0,5-5V392a5,5,0,0,0-5-5l3.24-2.45a4.4,4.4,0,0,0,1.75-3.51v-4.47a57.63,57.63,0,0,0,22.43-13l3.89,2.24a4.4,4.4,0,0,0,3.92.24l3.74-1.57a5,5,0,0,0,1.82,6.81L336.4,373a5,5,0,0,0,6.81-1.83,1.73,1.73,0,0,1,1.49-.86,1.71,1.71,0,0,1,1,.36c6,4.67,12.66,14,29.17,23.55s27.92,10.61,35,13.49a1.71,1.71,0,0,1,.82,2.44,5,5,0,0,0,1.82,6.81l2.83,1.63a5,5,0,0,0,5.2-.15A170.15,170.15,0,0,1,294.89,491ZM432.24,389.36l-2.82-1.63a5,5,0,0,0-6.81,1.83,1.71,1.71,0,0,1-2.53.5c-6-4.67-12.66-14-29.17-23.55S363,355.9,355.92,353a1.71,1.71,0,0,1-.82-2.44,5,5,0,0,0-1.82-6.81l-2.83-1.63a5,5,0,0,0-6.81,1.82l-.5-4a4.41,4.41,0,0,0-2.17-3.28l-3.88-2.24a57.44,57.44,0,0,0,0-25.91l3.88-2.24a4.39,4.39,0,0,0,2.17-3.27l.5-4a5,5,0,0,0,6.81,1.83l2.83-1.63a5,5,0,0,0,1.82-6.81,1.71,1.71,0,0,1,.83-2.44c7.06-2.88,18.47-4,35-13.49s23.15-18.87,29.18-23.55a1.7,1.7,0,0,1,2.52.5,5,5,0,0,0,6.81,1.83l2.83-1.63a5,5,0,0,0,2.46-4.7,169.83,169.83,0,0,1,0,145.18A5,5,0,0,0,432.24,389.36Zm15.06,38.43a10.25,10.25,0,1,1,10.25-10.25A10.26,10.26,0,0,1,447.3,427.79Zm0-192.13a10.26,10.26,0,1,1,10.25-10.26A10.26,10.26,0,0,1,447.31,235.66Z"/><circle class="cls-2" cx="280.92" cy="321.45" r="14.69"/></g></g></svg>