<svg xmlns="http://www.w3.org/2000/svg" xmlns:xlink="http://www.w3.org/1999/xlink" viewBox="0 0 126.17 126.17"><defs><style>.cls-1{fill:url(#radial-gradient);}.cls-2{fill:#95bcd3;}</style><radialGradient id="radial-gradient" cx="-1245.62" cy="399.81" r="0.44" gradientTransform="matrix(144, 0, 0, -144, 179432.66, 57635.49)" gradientUnits="userSpaceOnUse"><stop offset="0" stop-color="#ffff3e"/><stop offset="0.08" stop-color="#d49b2a"/><stop offset="0.66" stop-color="#d9cb49"/><stop offset="1" stop-color="#f2f1f1"/></radialGradient></defs><g id="Layer_2" data-name="Layer 2"><g id="Layer_1-2" data-name="Layer 1"><g id="RisingSunComponent"><circle id="Ellipse_1" data-name="Ellipse 1" class="cls-1" cx="63.09" cy="63.09" r="63.09"/></g><path d="M55.15,108.44c-7.1,0-14-1.93-18.7-5.19,11-1.91,22.17-8.66,33-15.18s22-13.31,32.94-15.1C96.49,89.25,84.67,101,69,106.17A44.31,44.31,0,0,1,55.15,108.44Z"/><path d="M101.57,73.61c-5.89,15.71-17.47,27.07-32.74,32.08a43.7,43.7,0,0,1-13.68,2.25,34.16,34.16,0,0,1-17.38-4.43c10.71-2.19,21.47-8.7,31.89-15S91,75.59,101.57,73.61m1.52-1.26c-22.63,3.19-45.27,27.39-67.9,30.59,4.18,3.27,11.27,6,20,6a44.67,44.67,0,0,0,14-2.3c14.92-4.89,27.7-16.16,34-34.29Z"/><path class="cls-2" d="M31.38,87.9a46.32,46.32,0,0,1-4.9-.25A11.56,11.56,0,0,1,25.74,81,19,19,0,0,1,29,74c13.4-2.92,27-12.3,40.06-21.38,12.94-9,26.32-18.21,39.43-21.16.42,1.6.83,3.21,1.26,4.84l.25,1.18c.08.39.15.76.23,1.13.17.87.33,1.76.47,2.65.11.63.21,1.27.29,1.89.06.35.11.68.15,1,.07.53.14,1.06.2,1.59l.05.42c.06.56.12,1.14.17,1.73.1.94.17,1.88.23,2.82,0,4.83-.12,9.65-.19,14.43l0,.1c0,.18,0,.29,0,.39l-.1.76L111,69.74a48.06,48.06,0,0,0-4.83-.24c-12.55,0-25.26,4.69-37.55,9.23S43.75,87.9,31.38,87.9Z"/><path d="M108.11,32.05c.37,1.44.75,2.89,1.13,4.35v0h0q.12.55.24,1.14t.21,1l0,.07c.15.74.29,1.55.47,2.63.12.67.21,1.3.29,1.9,0,.32.1.65.14,1s.14,1,.21,1.57V46c0,.09,0,.18,0,.24.07.57.12,1.13.17,1.74.11,1,.18,2,.23,2.76q-.09,7.25-.19,14.37v.21a1.68,1.68,0,0,1,0,.29l0,.37,0,.22,0,.15c-.12,1-.25,1.91-.38,2.85-1.44-.12-2.92-.19-4.41-.19-12.63,0-25.39,4.71-37.72,9.26-12.17,4.5-24.75,9.14-37,9.14-1.54,0-3.06-.07-4.55-.21a11,11,0,0,1-.6-6.06,18.36,18.36,0,0,1,3.06-6.7c13.42-3,27-12.35,40-21.41,12.74-8.82,25.91-17.93,38.78-21m.72-1.19c-26.72,5.71-53.43,37-80.15,42.68a19.91,19.91,0,0,0-3.43,7.4,12.1,12.1,0,0,0,.88,7.18,48.6,48.6,0,0,0,5.25.28C56.3,88.4,81.22,70,106.14,70a46.19,46.19,0,0,1,5.25.29l0-.33.48-3.49,0-.38c0-.12,0-.24.05-.36s0-.27,0-.4l0-.16q.11-7.19.19-14.47c-.06-1-.13-1.9-.23-2.84-.05-.59-.11-1.17-.18-1.75,0-.13,0-.28,0-.41-.07-.53-.13-1.07-.21-1.58,0-.36-.09-.7-.14-1-.08-.63-.18-1.28-.29-1.91-.15-.9-.31-1.79-.48-2.66-.08-.38-.15-.76-.23-1.13s-.16-.77-.24-1.14l0-.08q-.69-2.67-1.38-5.3Z"/><path class="cls-2" d="M37,41.4a12,12,0,0,1-3.3-.38c5.55-2.48,12.2-7.28,19.23-12.34,5.15-3.71,10.48-7.54,16-11C74,14.57,78.72,13,83.14,13c8.1,0,15.1,5.21,20.82,15.48a12.85,12.85,0,0,0-3.38-.37c-7,0-19.59,3.37-31.75,6.64S44,41.4,37,41.4Z"/><path d="M83.14,12.5v1c7.65,0,14.32,4.8,19.84,14.26a17.23,17.23,0,0,0-2.4-.15c-7.09,0-19.13,3.23-31.89,6.65C56.54,37.53,44,40.9,37,40.9c-.62,0-1.18,0-1.69-.08,5.22-2.59,11.17-6.88,17.91-11.73,5.14-3.71,10.46-7.54,16-11,4.87-3,9.53-4.58,13.85-4.58v-1m0,0c-4.58,0-9.41,1.63-14.38,4.73C54.79,26,42,37.2,32.47,41A9.19,9.19,0,0,0,37,41.9c14.08,0,49.6-13.3,63.54-13.29a8.84,8.84,0,0,1,4.49.87c-6.12-11.62-13.62-17-21.93-17Z"/><path d="M102.43,23.82c.39.58.78,1.19,1.18,1.86s.92,1.56,1.32,2.3c.21.36.41.74.67,1.24s.53,1,.78,1.51l.05.11c.21.43.43.87.64,1.31.34.72.71,1.54,1.16,2.57l0,.08c.13.3.26.61.4,1l.22.51.11.27.12.3.48,1.24h0l0,.11c.06.16.12.33.19.49-1.82-.1-3.69-.16-5.59-.16-11.91,0-24,2.07-35.66,4.07s-23.59,4-35.33,4c-1.53,0-3,0-4.53-.1l.26-.22.05,0c.13-.11.27-.22.45-.35.65-.55,1.36-1.11,2.12-1.7l.66-.53.1-.07.79-.62.47-.37.89-.69.39-.31c4.87,0,19.25-4.39,34.47-9,14-4.25,28.37-8.64,33.05-8.79m.24-1c-9.16,0-58.42,17.82-67.78,17.82h-.31L33,41.84l-1.28,1c-.26.2-.52.4-.76.6q-1.12.87-2.13,1.71c-.16.11-.3.23-.45.35s-.45.37-.66.56l-.67.55-.87.77q3.53.25,7.06.25c23.66,0,47.33-8.1,71-8.1,2.36,0,4.71.08,7.06.26-.24-.66-.48-1.31-.73-2a.36.36,0,0,0,0-.09c-.2-.52-.4-1-.61-1.57l-.34-.81c-.14-.36-.29-.7-.44-1-.38-.88-.78-1.76-1.18-2.6-.23-.48-.46-1-.7-1.43s-.51-1-.78-1.54-.46-.86-.7-1.28c-.42-.79-.87-1.57-1.33-2.31s-1-1.59-1.49-2.34Z"/><path d="M107.82,62.06c0,.21,0,.42,0,.64s0,.29,0,.41l-.06.61c0,.33-.07.66-.11,1,0,.16,0,.31-.07.47-.07.56-.15,1.11-.25,1.67s-.18,1.13-.29,1.67v.07a5.14,5.14,0,0,1-.11.6c-.09.47-.19.93-.3,1.41s-.23,1-.36,1.51l-.08.32-.24.89c-.26.9-.51,1.72-.77,2.49s-.45,1.27-.69,1.89h-.06c-11.94,0-24,2.11-35.73,4.15S45,86,33.2,86h-.3l-.64-.72c-.2-.23-.38-.46-.55-.68s-.34-.45-.51-.71-.28-.43-.43-.69a5.18,5.18,0,0,1-.31-.57l0,0,0,0a4.23,4.23,0,0,1-.22-.42,6.14,6.14,0,0,1-.25-.62l0-.09c13.1-1.19,26.34-5.51,39.16-9.7s25.86-8.44,38.75-9.61m1.09-1.1c-26.77,2-53.53,17.48-80.3,19.52,0,.19.1.38.14.58s.05.13.07.2.12.38.19.57.17.45.27.67.17.35.27.52a6.42,6.42,0,0,0,.37.68,8.21,8.21,0,0,0,.47.73,8.33,8.33,0,0,0,.52.74c.18.24.38.48.59.73s1,1.07,1,1.07h.74c23.71,0,47.42-8.26,71.12-8.26h.74c.34-.83.66-1.69,1-2.57s.54-1.68.78-2.54l.33-1.22c.13-.51.26-1,.37-1.56s.2-.94.3-1.43q.08-.33.12-.66c.12-.56.21-1.14.3-1.72s.18-1.13.25-1.69c0-.15,0-.3.07-.45l.18-1.65c0-.13,0-.27,0-.4,0-.62.11-1.24.15-1.86Z"/></g></g></svg>
