<svg xmlns="http://www.w3.org/2000/svg" xmlns:xlink="http://www.w3.org/1999/xlink" viewBox="0 0 285.97 194.51"><defs><style>.cls-1{fill:url(#radial-gradient);}.cls-2{fill:#010101;}.cls-3{fill:#96bdd3;}.cls-4{font-size:176.83px;}.cls-4,.cls-5{fill:#231f20;font-family:SuburbanOT-Light, Suburban OT;font-weight:300;}.cls-5{font-size:65.81px;}</style><radialGradient id="radial-gradient" cx="-1267.84" cy="466.97" r="0.24" gradientTransform="matrix(144, 0, 0, -144.15, 182607.36, 67436.97)" gradientUnits="userSpaceOnUse"><stop offset="0" stop-color="#f7ed43"/><stop offset="0.08" stop-color="#d39b2a"/><stop offset="0.66" stop-color="#d9cb48"/><stop offset="1" stop-color="#f3f1f1"/></radialGradient></defs><g id="Layer_2" data-name="Layer 2"><g id="Layer_1-2" data-name="Layer 1"><g id="RisingSunComponent"><ellipse id="Ellipse_1" data-name="Ellipse 1" class="cls-1" cx="38.88" cy="125.15" rx="35.09" ry="35.12"/></g><path class="cls-2" d="M36,170.63c-7.1,0-14-1.93-18.7-5.2,11-1.91,22.17-8.65,33-15.17s22-13.31,32.94-15.11c-5.85,16.29-17.67,28.06-33.36,33.21A44.31,44.31,0,0,1,36,170.63Z"/><path class="cls-2" d="M82.37,135.8c-5.89,15.71-17.47,27.07-32.74,32.08A44,44,0,0,1,36,170.13a34.06,34.06,0,0,1-17.38-4.44c10.71-2.19,21.46-8.7,31.89-15s21.32-12.91,31.91-14.89m1.52-1.27c-22.63,3.2-45.27,27.4-67.9,30.6,4.18,3.27,11.27,6,20,6a45,45,0,0,0,14-2.3c14.91-4.89,27.7-16.16,34-34.3Z"/><path class="cls-3" d="M7.18,151a46.32,46.32,0,0,1-4.9-.25,11.58,11.58,0,0,1-.74-6.62,19,19,0,0,1,3.24-7c13.39-2.92,27-12.3,40.06-21.38,12.94-8.95,26.32-18.21,39.43-21.16q.62,2.4,1.26,4.84l.25,1.18c.08.36.14.71.21,1.07.19.93.35,1.82.49,2.71.11.63.21,1.27.29,1.89,0,.35.11.68.15,1,.07.53.14,1.06.2,1.59l0,.42c.06.56.12,1.14.17,1.72.1.94.17,1.89.23,2.83-.06,4.82-.12,9.65-.19,14.43l0,.1,0,.38-.55,4.1a48.06,48.06,0,0,0-4.83-.24c-12.55,0-25.26,4.69-37.55,9.23S19.55,151,7.18,151Z"/><path class="cls-2" d="M83.91,95.18c.37,1.44.75,2.89,1.13,4.35v0h0l.24,1.14q.12.52.21,1l0,.06c.15.79.31,1.65.47,2.64.12.68.21,1.29.29,1.89,0,.33.1.66.14,1,.08.51.14,1,.2,1.58a.88.88,0,0,1,0,.16c0,.09,0,.18,0,.24.07.56.12,1.13.17,1.74.11,1,.18,1.94.23,2.76q-.09,7.23-.19,14.36v.22a1.78,1.78,0,0,1,0,.29l0,.37,0,.22,0,.14c-.12,1-.25,1.92-.38,2.86-1.44-.13-2.92-.19-4.41-.19-12.64,0-25.39,4.71-37.72,9.26-12.17,4.5-24.75,9.14-37,9.14a45.46,45.46,0,0,1-4.55-.22,10.94,10.94,0,0,1-.6-6.05,18.41,18.41,0,0,1,3.05-6.7c13.43-3,27-12.35,40.05-21.41,12.74-8.82,25.91-17.93,38.78-21M84.63,94c-26.72,5.7-53.43,37-80.15,42.68a19.91,19.91,0,0,0-3.43,7.4,12.1,12.1,0,0,0,.88,7.18,48.6,48.6,0,0,0,5.25.28c24.92,0,49.84-18.4,74.76-18.4a48.6,48.6,0,0,1,5.25.28l0-.32c.16-1.16.32-2.33.47-3.49l.05-.38c0-.12,0-.24,0-.36s0-.27,0-.4l0-.16q.11-7.19.19-14.47c-.06-1-.13-1.9-.23-2.84,0-.59-.11-1.17-.18-1.75,0-.13,0-.28,0-.41-.07-.54-.13-1.07-.21-1.59,0-.35-.09-.69-.14-1-.08-.63-.18-1.28-.29-1.91-.15-.9-.31-1.79-.48-2.66-.08-.38-.15-.76-.23-1.14s-.16-.76-.25-1.14v-.07c-.46-1.79-.92-3.55-1.38-5.3Z"/><path class="cls-3" d="M13.84,103.53a12,12,0,0,1-3.3-.38c5.55-2.48,12.2-7.28,19.22-12.34,5.16-3.71,10.48-7.55,16.06-11,5-3.09,9.7-4.65,14.11-4.65C68,75.13,75,80.33,80.76,90.6a13.29,13.29,0,0,0-3.38-.37c-7,0-19.59,3.38-31.75,6.64S20.83,103.53,13.84,103.53Z"/><path class="cls-2" d="M59.94,74.63v1h0c7.65,0,14.32,4.79,19.84,14.26a17.12,17.12,0,0,0-2.4-.16c-7.08,0-19.13,3.24-31.88,6.66C33.34,99.65,20.77,103,13.84,103c-.62,0-1.19,0-1.69-.08,5.22-2.59,11.17-6.88,17.91-11.73,5.14-3.71,10.46-7.54,16-11,4.87-3,9.53-4.58,13.85-4.58v-1m0,0c-4.58,0-9.41,1.63-14.38,4.73-14,8.72-26.79,20-36.29,23.79a9.19,9.19,0,0,0,4.57.88c14.08,0,49.6-13.3,63.54-13.3a8.94,8.94,0,0,1,4.49.87c-6.12-11.62-13.63-17-21.93-17Z"/><path class="cls-2" d="M76.23,86c.4.59.78,1.2,1.18,1.85.51.85.93,1.57,1.32,2.31.25.43.48.86.67,1.23l0,.1c.25.47.5.94.73,1.42l.69,1.42c.43.9.85,1.85,1.16,2.57l0,0c.14.31.28.62.42,1,.07.15.13.3.2.46l.13.32.28.71.32.83h0l0,.11c.06.16.12.33.19.49-1.82-.1-3.69-.16-5.59-.16-11.91,0-24,2.07-35.66,4.07s-23.59,4-35.33,4c-1.54,0-3,0-4.53-.1l.31-.26.45-.36c.63-.53,1.32-1.08,2.12-1.69.22-.19.46-.37.7-.56l0,0h0l.79-.63.47-.36.89-.7.39-.3c4.87,0,19.25-4.39,34.47-9,14-4.25,28.37-8.64,33.05-8.79m.24-1c-9.17,0-58.42,17.82-67.78,17.82H8.38L6.82,104l-1.28,1c-.26.2-.52.4-.76.6-.75.58-1.46,1.15-2.13,1.7l-.45.36-.66.55-.67.56-.87.76c2.35.18,4.7.26,7.06.26,23.66,0,47.33-8.1,71-8.1,2.36,0,4.71.08,7.06.26-.24-.67-.48-1.31-.73-2a.36.36,0,0,0,0-.09l-.61-1.57-.34-.82c-.15-.35-.29-.69-.44-1-.38-.89-.78-1.76-1.18-2.6-.23-.48-.46-1-.7-1.43s-.52-1-.78-1.54-.46-.86-.7-1.28c-.42-.8-.87-1.57-1.33-2.31s-1-1.59-1.49-2.34Z"/><path class="cls-2" d="M83.59,124.28c0,.42,0,.83-.08,1.22,0,.2,0,.4,0,.57l-.08.9c0,.41-.07.83-.11,1.25,0,.2,0,.4-.07.62-.07.71-.16,1.46-.26,2.22s-.18,1.49-.3,2.24v0c0,.27-.07.54-.12.84-.1.63-.2,1.24-.31,1.87s-.25,1.4-.38,2l-.11.52-.23,1.09c-.27,1.23-.53,2.32-.8,3.33s-.49,1.78-.76,2.66h0c-12.43,0-25,2.8-37.16,5.5S18.22,156.63,6,156.63H5.77c-.22-.31-.51-.72-.68-1s-.41-.62-.58-.92-.36-.61-.53-.95-.32-.61-.46-.92a8.24,8.24,0,0,1-.35-.81V152l0,0c-.09-.18-.15-.36-.22-.54l0-.06c-.1-.26-.18-.53-.27-.84s-.11-.4-.17-.62C16.15,148.34,30,142.59,43.34,137c13.22-5.51,26.87-11.19,40.25-12.74m1.07-1.12c-27.8,2.7-55.6,23.16-83.4,25.86,0,.26.1.51.15.77l.06.27c.06.25.13.5.2.75s.18.6.29.89.17.46.27.69a8.89,8.89,0,0,0,.39.91c.14.32.31.64.48,1s.35.65.54,1l.61,1c.32.46,1,1.41,1,1.41H6c24.63,0,49.25-10.95,73.88-10.95h.76c.35-1.09.69-2.24,1-3.41s.56-2.22.81-3.37c.11-.53.23-1.07.34-1.61s.27-1.37.38-2.07.22-1.24.32-1.88c0-.3.09-.59.13-.88.12-.74.21-1.51.31-2.28s.18-1.49.25-2.25c0-.19,0-.39.07-.59.07-.73.13-1.45.19-2.18a4.93,4.93,0,0,1,.05-.54c0-.82.11-1.64.15-2.46Z"/><text class="cls-4" transform="translate(58.06 136.16) scale(1.14 1)">P</text><text class="cls-5" transform="translate(97.23 121.12)">ortfolio</text></g></g></svg>