<svg xmlns="http://www.w3.org/2000/svg" xmlns:xlink="http://www.w3.org/1999/xlink" viewBox="0 0 303.18 194.51"><defs><style>.cls-1{fill:url(#radial-gradient);}.cls-2{fill:#010101;}.cls-3{fill:#96bdd3;}.cls-4{font-size:176.83px;}.cls-4,.cls-5{fill:#231f20;font-family:SuburbanOT-Light, Suburban OT;font-weight:300;}.cls-5{font-size:65.81px;}</style><radialGradient id="radial-gradient" cx="-1250.63" cy="466.97" r="0.39" gradientTransform="matrix(144, 0, 0, -144.15, 180146.65, 67436.97)" gradientUnits="userSpaceOnUse"><stop offset="0" stop-color="#f7ed43"/><stop offset="0.08" stop-color="#d39b2a"/><stop offset="0.66" stop-color="#d9cb48"/><stop offset="1" stop-color="#f3f1f1"/></radialGradient></defs><g id="Layer_2" data-name="Layer 2"><g id="Layer_1-2" data-name="Layer 1"><g id="RisingSunComponent"><ellipse id="Ellipse_1" data-name="Ellipse 1" class="cls-1" cx="56.09" cy="125.15" rx="56.09" ry="56.15"/></g><path class="cls-2" d="M53.16,170.63c-7.1,0-14-1.93-18.7-5.2,11-1.91,22.16-8.65,32.95-15.17s22-13.31,32.94-15.11C94.5,151.44,82.68,163.21,67,168.36A44.35,44.35,0,0,1,53.16,170.63Z"/><path class="cls-2" d="M99.58,135.8c-5.9,15.71-17.47,27.07-32.74,32.08a44,44,0,0,1-13.68,2.25,34.13,34.13,0,0,1-17.39-4.44c10.72-2.19,21.47-8.7,31.9-15S89,137.78,99.58,135.8m1.52-1.27c-22.64,3.2-45.27,27.4-67.9,30.6,4.17,3.27,11.27,6,20,6a45,45,0,0,0,14-2.3c14.91-4.89,27.7-16.16,33.95-34.3Z"/><path class="cls-3" d="M24.39,151a46.65,46.65,0,0,1-4.91-.25,11.57,11.57,0,0,1-.73-6.62,19,19,0,0,1,3.24-7c13.39-2.92,27-12.3,40.06-21.38C75,106.79,88.37,97.53,101.48,94.58q.61,2.4,1.25,4.84c.1.42.18.81.25,1.18s.15.71.22,1.07c.19.93.34,1.82.49,2.71.11.63.21,1.27.29,1.89l.15,1c.07.53.13,1.06.2,1.59l0,.42c.06.56.12,1.14.17,1.72.1.94.17,1.89.23,2.83-.06,4.82-.12,9.65-.2,14.43v.1l0,.38-.55,4.1a48.06,48.06,0,0,0-4.83-.24c-12.55,0-25.26,4.69-37.56,9.23S36.76,151,24.39,151Z"/><path class="cls-2" d="M101.11,95.18q.57,2.16,1.14,4.35v0h0q.12.56.24,1.14c.08.35.14.7.21,1v.06c.16.79.32,1.65.48,2.64.12.68.21,1.29.29,1.89.05.33.1.66.14,1,.07.51.14,1,.2,1.58a.88.88,0,0,1,0,.16c0,.09,0,.18,0,.24.06.56.12,1.13.17,1.74.1,1,.17,1.94.23,2.76q-.09,7.23-.2,14.36v.22c0,.08,0,.17,0,.29l0,.37,0,.22,0,.14c-.13,1-.26,1.92-.38,2.86-1.44-.13-2.92-.19-4.41-.19-12.64,0-25.39,4.71-37.72,9.26-12.17,4.5-24.75,9.14-37,9.14a45.32,45.32,0,0,1-4.55-.22,10.94,10.94,0,0,1-.6-6.05,18.24,18.24,0,0,1,3.05-6.7c13.43-3,27-12.35,40.05-21.41,12.74-8.82,25.91-17.93,38.77-21m.73-1.19c-26.72,5.7-53.44,37-80.15,42.68a19.91,19.91,0,0,0-3.43,7.4,12,12,0,0,0,.88,7.18,48.6,48.6,0,0,0,5.25.28c24.92,0,49.84-18.4,74.75-18.4a48.78,48.78,0,0,1,5.26.28l0-.32c.16-1.16.32-2.33.47-3.49l0-.38c0-.12,0-.24,0-.36s0-.27,0-.4l0-.16q.12-7.19.2-14.47c-.06-1-.13-1.9-.24-2.84,0-.59-.1-1.17-.17-1.75,0-.13,0-.28-.05-.41-.06-.54-.12-1.07-.2-1.59,0-.35-.09-.69-.14-1-.08-.63-.19-1.28-.3-1.91-.14-.9-.3-1.79-.48-2.66-.07-.38-.14-.76-.23-1.14s-.15-.76-.24-1.14v-.07c-.46-1.79-.93-3.55-1.38-5.3Z"/><path class="cls-3" d="M31.05,103.53a12,12,0,0,1-3.3-.38C33.29,100.67,40,95.87,47,90.81c5.15-3.71,10.48-7.55,16.06-11,5-3.09,9.7-4.65,14.11-4.65,8.1,0,15.11,5.2,20.83,15.47a13.29,13.29,0,0,0-3.38-.37c-7,0-19.6,3.38-31.76,6.64S38,103.53,31.05,103.53Z"/><path class="cls-2" d="M77.14,74.63v1h0c7.66,0,14.32,4.79,19.85,14.26a17.23,17.23,0,0,0-2.4-.16c-7.09,0-19.13,3.24-31.89,6.66C50.55,99.65,38,103,31.05,103c-.62,0-1.19,0-1.7-.08,5.23-2.59,11.18-6.88,17.91-11.73,5.15-3.71,10.47-7.54,16-11,4.86-3,9.52-4.58,13.84-4.58v-1m0,0c-4.58,0-9.4,1.63-14.37,4.73-14,8.72-26.79,20-36.29,23.79a9.16,9.16,0,0,0,4.57.88c14.08,0,49.6-13.3,63.54-13.3a9,9,0,0,1,4.49.87C93,80,85.45,74.63,77.14,74.63Z"/><path class="cls-2" d="M93.44,86c.4.59.78,1.2,1.18,1.85.51.85.92,1.57,1.31,2.31.26.43.49.86.68,1.23l0,.1c.25.47.49.94.73,1.42l.69,1.42c.43.9.85,1.85,1.16,2.57l0,0c.14.31.27.62.42,1,.07.15.13.3.19.46l.14.32.28.71.32.83h0l0,.11c.07.16.13.33.19.49-1.81-.1-3.68-.16-5.58-.16-11.92,0-24,2.07-35.67,4.07s-23.58,4-35.33,4c-1.53,0-3,0-4.52-.1.09-.09.2-.17.3-.26l.45-.36c.64-.53,1.33-1.08,2.13-1.69.22-.19.46-.37.7-.56l.05,0h0l.79-.63.47-.36.89-.7.39-.3c4.87,0,19.25-4.39,34.47-9,14-4.25,28.37-8.64,33.05-8.79m.24-1c-9.17,0-58.42,17.82-67.78,17.82h-.32L24,104l-1.27,1-.77.6c-.74.58-1.45,1.15-2.12,1.7l-.45.36-.67.55-.66.56-.87.76c2.35.18,4.7.26,7.05.26,23.67,0,47.34-8.1,71-8.1,2.35,0,4.71.08,7.06.26-.24-.67-.48-1.31-.74-2a.16.16,0,0,0,0-.09l-.61-1.57c-.12-.28-.23-.55-.35-.82s-.29-.69-.43-1c-.39-.89-.78-1.76-1.18-2.6-.23-.48-.46-1-.7-1.43s-.52-1-.78-1.54-.46-.86-.7-1.28c-.43-.8-.88-1.57-1.33-2.31s-1-1.59-1.5-2.34Z"/><path class="cls-2" d="M100.8,124.28c0,.42,0,.83-.08,1.22,0,.2,0,.4,0,.57l-.07.9c0,.41-.07.83-.11,1.25,0,.2,0,.4-.07.62-.07.71-.16,1.46-.26,2.22s-.18,1.49-.3,2.24v0c0,.27-.07.54-.12.84-.1.63-.2,1.24-.31,1.87s-.25,1.4-.38,2l-.11.52-.23,1.09c-.27,1.23-.53,2.32-.8,3.33s-.49,1.78-.76,2.66h0c-12.43,0-25,2.8-37.16,5.5s-24.52,5.45-36.72,5.45H23c-.22-.31-.51-.72-.68-1s-.41-.62-.58-.92-.36-.61-.53-.95-.32-.61-.46-.92a8.24,8.24,0,0,1-.35-.81V152l0,0q-.12-.27-.21-.54l0-.06c-.09-.26-.18-.53-.26-.84s-.11-.4-.17-.62c13.69-1.56,27.51-7.31,40.88-12.88s26.87-11.19,40.25-12.74m1.07-1.12c-27.8,2.7-55.6,23.16-83.4,25.86,0,.26.09.51.14.77a2.13,2.13,0,0,1,.07.27c.06.25.12.5.2.75s.18.6.28.89.17.46.28.69a8.89,8.89,0,0,0,.39.91c.14.32.31.64.48,1s.35.65.54,1,.4.64.61,1,1,1.41,1,1.41h.76c24.62,0,49.25-10.95,73.88-10.95h.76c.35-1.09.69-2.24,1-3.41s.57-2.22.82-3.37c.11-.53.22-1.07.34-1.61s.27-1.37.38-2.07.22-1.24.32-1.88c0-.3.09-.59.12-.88.12-.74.22-1.51.31-2.28s.19-1.49.26-2.25c0-.19,0-.39.07-.59.07-.73.13-1.45.19-2.18,0-.18,0-.36,0-.54.06-.82.11-1.64.16-2.46Z"/><text class="cls-4" transform="translate(75.26 136.16) scale(1.14 1)">P</text><text class="cls-5" transform="translate(114.43 121.12)">ortfolio</text></g></g></svg>