<svg xmlns="http://www.w3.org/2000/svg" xmlns:xlink="http://www.w3.org/1999/xlink" viewBox="0 0 144 144"><defs><style>.cls-1{fill:url(#radial-gradient);}.cls-2{fill:#95bcd3;}</style><radialGradient id="radial-gradient" cx="-1236.71" cy="408.72" r="0.5" gradientTransform="matrix(144, 0, 0, -144, 178157.83, 58928.15)" gradientUnits="userSpaceOnUse"><stop offset="0" stop-color="#ffff3e"/><stop offset="0.08" stop-color="#d49b2a"/><stop offset="0.66" stop-color="#d9cb49"/><stop offset="1" stop-color="#f2f1f1"/></radialGradient></defs><g id="Layer_2" data-name="Layer 2"><g id="Layer_1-2" data-name="Layer 1"><g id="RisingSunComponent"><circle id="Ellipse_1" data-name="Ellipse 1" class="cls-1" cx="72" cy="72" r="72"/></g><path d="M64.06,117.36c-7.09,0-14-1.93-18.69-5.2,11-1.91,22.16-8.65,32.95-15.18s22-13.31,32.94-15.1c-5.86,16.28-17.67,28.06-33.36,33.2A44.38,44.38,0,0,1,64.06,117.36Z"/><path d="M110.49,82.52C104.59,98.24,93,109.6,77.74,114.61a43.94,43.94,0,0,1-13.68,2.25,34.09,34.09,0,0,1-17.38-4.44c10.72-2.19,21.47-8.7,31.89-15S99.9,84.5,110.49,82.52M112,81.26c-22.64,3.19-45.27,27.4-67.9,30.59,4.17,3.27,11.26,6,20,6a45,45,0,0,0,14-2.3c14.91-4.9,27.69-16.16,34-34.3Z"/><path class="cls-2" d="M40.3,96.82a46.65,46.65,0,0,1-4.91-.25A11.59,11.59,0,0,1,34.65,90a19.05,19.05,0,0,1,3.25-7C51.29,80,64.85,70.6,78,61.53c12.94-9,26.31-18.21,39.42-21.16.42,1.59.84,3.21,1.26,4.83.09.43.18.81.25,1.19s.16.75.23,1.13c.18.87.33,1.76.48,2.65.11.62.21,1.26.29,1.89,0,.35.1.68.14,1,.08.52.14,1,.21,1.58l0,.43c.07.56.13,1.13.17,1.72.1.94.18,1.89.24,2.83-.06,4.82-.13,9.64-.2,14.43l0,.1a2.6,2.6,0,0,1,0,.38l-.1.76c-.14,1.11-.29,2.23-.45,3.33-1.57-.15-3.19-.23-4.83-.23-12.55,0-25.26,4.69-37.55,9.23S52.67,96.82,40.3,96.82Z"/><path d="M117,41c.38,1.44.76,2.89,1.13,4.35v0h0q.14.54.24,1.14c.08.35.15.7.22,1.05v.06c.15.74.3,1.55.48,2.64.11.67.21,1.3.28,1.89.06.33.11.66.15,1s.14,1,.2,1.57l0,.17c0,.09,0,.17,0,.23.06.57.12,1.14.17,1.75.1,1,.18,2,.23,2.75Q120.1,66.88,120,74v0l0,.11v.08c0,.08,0,.17,0,.29l0,.36,0,.22,0,.15c-.13,1-.26,1.92-.39,2.86-1.44-.13-2.91-.2-4.4-.2-12.64,0-25.39,4.71-37.72,9.27-12.17,4.49-24.75,9.14-37,9.14a45.32,45.32,0,0,1-4.55-.22,10.89,10.89,0,0,1-.6-6.06,18.28,18.28,0,0,1,3.05-6.69c13.43-3,27-12.35,40-21.41C91,53.12,104.16,44,117,41m.73-1.19c-26.72,5.7-53.44,37-80.16,42.68a19.91,19.91,0,0,0-3.43,7.4A12.16,12.16,0,0,0,35,97a46.49,46.49,0,0,0,5.26.29c24.92,0,49.83-18.41,74.75-18.41a51.5,51.5,0,0,1,5.26.29l0-.33c.16-1.16.31-2.32.47-3.49l0-.37c0-.12,0-.24.05-.36s0-.28,0-.41l0-.16q.11-7.17.2-14.46c-.07-.95-.14-1.91-.24-2.84,0-.59-.1-1.17-.17-1.75,0-.14,0-.28,0-.42-.06-.53-.13-1.06-.2-1.58,0-.35-.09-.69-.15-1-.08-.64-.18-1.29-.29-1.92-.15-.89-.3-1.78-.48-2.66-.07-.37-.15-.75-.23-1.13s-.16-.77-.24-1.14v-.07q-.7-2.69-1.38-5.3Z"/><path class="cls-2" d="M46,50.31a12,12,0,0,1-3.3-.37c5.54-2.49,12.2-7.28,19.22-12.34,5.15-3.71,10.48-7.55,16.06-11,5-3.09,9.7-4.65,14.11-4.65,8.1,0,15.1,5.2,20.83,15.47A12.85,12.85,0,0,0,109.5,37c-7,0-19.6,3.38-31.76,6.64S53,50.31,46,50.31Z"/><path d="M92.05,21.42v1c7.65,0,14.32,4.79,19.85,14.26a15.87,15.87,0,0,0-2.41-.16c-7.08,0-19.13,3.23-31.88,6.66C65.45,46.44,52.88,49.81,46,49.81a14.81,14.81,0,0,1-1.7-.08C49.49,47.14,55.44,42.86,62.17,38c5.15-3.71,10.47-7.54,16-11,4.87-3,9.53-4.57,13.85-4.57v-1m0,0c-4.58,0-9.4,1.62-14.37,4.73-14,8.71-26.8,20-36.3,23.78a9.12,9.12,0,0,0,4.58.88c14.08,0,49.6-13.29,63.54-13.29a9,9,0,0,1,4.49.87c-6.13-11.62-13.63-17-21.94-17Z"/><path d="M111.35,32.73q.57.87,1.17,1.86c.5.82.93,1.56,1.32,2.3.21.36.42.74.68,1.24s.52,1,.77,1.52l.06.11c.21.43.42.86.63,1.31.35.72.72,1.53,1.17,2.56l0,.09c.13.3.27.6.41,1l.21.51.12.27.12.31.48,1.24h0l0,.1c.07.17.13.33.19.5-1.81-.11-3.69-.16-5.58-.16-11.92,0-24,2.07-35.67,4.06s-23.58,4-35.33,4c-1.53,0-3,0-4.53-.11l.26-.21.05,0,.45-.36c.66-.54,1.37-1.11,2.12-1.7l.67-.52.1-.08.78-.62.47-.36.89-.7.4-.3c4.87,0,19.25-4.39,34.47-9,14-4.24,28.37-8.63,33.05-8.79m.24-1c-9.17,0-58.42,17.82-67.78,17.82h-.32l-1.56,1.22-1.27,1-.77.6c-.74.58-1.45,1.14-2.13,1.7-.15.12-.3.23-.44.36l-.67.55-.66.56-.87.76c2.35.18,4.7.26,7.05.26,23.67,0,47.33-8.1,71-8.1,2.35,0,4.7.08,7,.26-.23-.67-.47-1.32-.73-2a.32.32,0,0,0,0-.09c-.2-.53-.41-1-.61-1.57-.12-.28-.23-.55-.35-.82s-.29-.69-.44-1c-.38-.89-.77-1.77-1.18-2.61-.22-.48-.46-1-.69-1.43s-.52-1-.79-1.53-.45-.86-.69-1.28c-.43-.8-.88-1.57-1.33-2.32s-1-1.59-1.5-2.33Z"/><path d="M116.74,71l-.06.65c0,.14,0,.29,0,.41l-.07.6c0,.34-.07.67-.11,1,0,.15,0,.31-.07.47-.07.55-.15,1.1-.24,1.66s-.18,1.13-.29,1.68v.06c0,.19-.07.38-.12.61-.09.47-.18.93-.3,1.41s-.23,1-.35,1.5l-.09.32-.24.89c-.25.91-.5,1.72-.77,2.49s-.44,1.28-.68,1.89h-.06c-11.94,0-24,2.11-35.74,4.15s-23.62,4.12-35.39,4.12h-.29l-.65-.72-.55-.68c-.16-.23-.33-.46-.5-.72s-.29-.43-.44-.68-.21-.38-.31-.58l0-.05,0,0a4.25,4.25,0,0,1-.21-.43,5.93,5.93,0,0,1-.25-.61.36.36,0,0,1,0-.09c13.11-1.2,26.35-5.52,39.17-9.7s25.86-8.45,38.75-9.62m1.08-1.09c-26.76,2-53.53,17.48-80.29,19.51a5.45,5.45,0,0,0,.14.58l.06.2a14.54,14.54,0,0,0,.47,1.24,4.42,4.42,0,0,0,.27.53,6.58,6.58,0,0,0,.37.68c.14.24.29.49.46.73s.34.49.52.73.38.49.59.73,1,1.07,1,1.07h.73c23.71,0,47.42-8.27,71.13-8.27H114q.51-1.25,1-2.58c.28-.83.54-1.67.78-2.54l.33-1.22c.14-.5.26-1,.37-1.56s.21-.93.31-1.42q.07-.33.12-.66c.11-.56.21-1.14.3-1.72s.17-1.13.24-1.7c0-.15,0-.3.07-.45l.18-1.64c0-.14,0-.27.05-.41,0-.62.1-1.23.14-1.85Z"/></g></g></svg>