<svg xmlns="http://www.w3.org/2000/svg" viewBox="0 0 152 152"><defs><style>.cls-1{fill:#96bdd3;}.cls-2,.cls-5{fill:#010101;}.cls-3,.cls-4{fill:#fff;}.cls-3,.cls-5{stroke:#010101;stroke-miterlimit:10;}.cls-6{fill:none;}</style></defs><g id="Layer_2" data-name="Layer 2"><g id="Layer_1-2" data-name="Layer 1"><path class="cls-1" d="M77,152a75,75,0,1,1,75-75A75.09,75.09,0,0,1,77,152ZM77,14.06A62.94,62.94,0,1,0,139.94,77,63,63,0,0,0,77,14.06Zm-.06,121.88a59,59,0,1,1,59-59A59.07,59.07,0,0,1,76.94,135.94ZM77,32.5a44.67,44.67,0,0,0-35.71,18l-.34.45c-.45.61-.87,1.24-1.28,1.87s-.71,1.1-1,1.67c-.19.32-.4.67-.59,1a32.23,32.23,0,0,0-1.56,3.11c-.1.2-.21.44-.32.68s-.31.74-.45,1.11-.29.73-.44,1.11-.28.75-.4,1.14l-.15.43A44.36,44.36,0,0,0,32.5,77a43.9,43.9,0,0,0,2,13.24l.14.46c.1.36.25.78.4,1.19l.18.49c.13.37.27.73.41,1.08s.36.9.55,1.34.32.72.5,1.07.39.86.62,1.3.48.92.74,1.37.5.9.77,1.35.55.89.83,1.33l1,1.42.32.45.35.47a44.49,44.49,0,0,0,71.41,0l.34-.45c.44-.61.87-1.23,1.28-1.87s.75-1.19,1.11-1.81l.49-.84c.21-.37.41-.75.59-1.12s.33-.64.5-1a5,5,0,0,0,.24-.52,12.61,12.61,0,0,0,.52-1.15c.17-.37.33-.76.49-1.15l.09-.22,0-.1.41-1.1.07-.21c.19-.48.33-.92.46-1.36.09-.27.2-.58.29-.9,0-.12.08-.27.13-.44s.19-.63.27-1l0-.13c.07-.28.13-.52.18-.76a2.68,2.68,0,0,0,.07-.27l0-.1A44.24,44.24,0,0,0,121.5,77c0-.66,0-1.32,0-2,0-.38,0-.79-.06-1.2,0,0,0-.25,0-.31,0-.34-.06-.71-.1-1.07s-.05-.47-.08-.72c0-.42-.1-.88-.17-1.33-.09-.61-.2-1.24-.32-1.86-.06-.29-.11-.55-.17-.81s-.1-.51-.17-.78c-.1-.46-.2-.88-.32-1.29l-.28-1c0-.18-.11-.41-.19-.65s-.19-.62-.31-1-.24-.75-.39-1.15v0l-.12-.26-.35-1s-.2-.49-.26-.61-.17-.43-.28-.67c-.27-.63-.55-1.25-.85-1.85-.15-.32-.33-.66-.5-1s-.37-.7-.57-1.05-.38-.7-.58-1c-.27-.49-.61-1-1-1.7s-.81-1.21-1.25-1.79a45.19,45.19,0,0,0-4.58-5.39L108,45.1A44.29,44.29,0,0,0,77,32.5Z" transform="translate(-1 -1)"/><path class="cls-2" d="M77,3A74,74,0,1,1,3,77,74.09,74.09,0,0,1,77,3m0,137.94A63.94,63.94,0,1,0,13.06,77,64,64,0,0,0,77,140.94m-.06-122a58,58,0,1,1-58,58,58.07,58.07,0,0,1,58-58M40.5,49.85c-.12.15-.24.31-.35.47-.48.64-.91,1.3-1.33,1.93s-.7,1.09-1,1.68c-.17.29-.39.66-.6,1.06-.57,1-1.11,2.07-1.59,3.16-.12.24-.23.48-.34.73s-.32.75-.45,1.09-.26.65-.38,1H33.8l-.46,1.37a45.37,45.37,0,0,0-2.28,14.25,44.82,44.82,0,0,0,2.21,14l.45,1.38H34c0,.11.07.22.11.33s.09.24.15.4c.15.4.29.79.43,1.14s.39,1,.58,1.4.31.7.49,1.06.43.93.64,1.32.5,1,.76,1.42.53.94.8,1.4.55.9.85,1.36.69,1,1,1.43l.34.49.35.46a45.48,45.48,0,0,0,73,0l.36-.47c.46-.63.9-1.28,1.3-1.9s.75-1.18,1.16-1.88l.18-.33.3-.51c.2-.35.4-.73.61-1.14s.33-.65.49-1a4.11,4.11,0,0,0,.25-.52c.21-.41.39-.82.55-1.2s.34-.8.5-1.19a.59.59,0,0,1,.06-.14l0-.1,0-.09.21-.57.2-.53v0l0,0,0-.09,0,0,0-.06c.18-.47.33-.91.45-1.33s.2-.58.29-.91c0-.15.09-.3.13-.45.11-.35.2-.68.29-1l0-.06c.07-.27.13-.54.19-.82,0-.1,0-.19.07-.3l0-.07v-.06A45.07,45.07,0,0,0,122.5,77c0-.8,0-1.42,0-2,0-.42,0-.83-.07-1.24v-.1c0-.08,0-.17,0-.2,0-.37-.06-.74-.1-1.1s-.05-.48-.08-.72c0-.43-.11-.9-.18-1.37-.11-.74-.21-1.35-.33-1.92,0-.27-.1-.53-.16-.8s-.11-.54-.17-.8v-.07c-.1-.43-.2-.86-.32-1.29s-.18-.65-.28-1-.12-.44-.2-.69-.2-.64-.31-1-.27-.86-.44-1.29l-.08-.22-.37-1v0l0,0-.07-.18-.15-.35-.3-.74c-.33-.76-.6-1.34-.86-1.85-.17-.35-.34-.69-.51-1s-.41-.78-.62-1.15-.34-.62-.56-1c-.3-.54-.65-1.1-1.07-1.75s-.84-1.25-1.27-1.84a45.52,45.52,0,0,0-4.7-5.5l-.47-.47A45.23,45.23,0,0,0,77,31.5,45.69,45.69,0,0,0,40.5,49.85M77,1a76,76,0,1,0,76,76A76,76,0,0,0,77,1Zm0,137.94A61.94,61.94,0,1,1,138.94,77,61.94,61.94,0,0,1,77,138.94Zm-.06-122a60,60,0,1,0,60,60,60,60,0,0,0-60-60ZM33.5,77a43.22,43.22,0,0,1,2.18-13.62l.15-.44c.12-.37.25-.74.39-1.1s.28-.74.43-1.1.29-.72.44-1.07.2-.45.31-.67c.46-1,1-2.06,1.53-3,.18-.34.38-.68.58-1,.31-.55.65-1.08,1-1.61s.82-1.23,1.26-1.83l.33-.44a43.49,43.49,0,0,1,65.23-5.25l.45.45a44.31,44.31,0,0,1,4.49,5.27c.42.57.82,1.15,1.21,1.75s.71,1.11,1,1.68c.19.3.36.6.53.91s.4.72.58,1.08.34.66.5,1c.29.58.56,1.18.82,1.78.1.23.2.46.29.7s.15.36.23.55l.39,1.05a.14.14,0,0,1,0,.06c.17.43.32.86.45,1.3s.21.62.3.93.13.41.18.62.19.66.28,1,.21.8.3,1.2v0c.06.26.12.53.17.79s.11.52.16.78c.12.6.22,1.21.31,1.82.07.43.13.87.17,1.3,0,.23.06.46.08.7s.07.71.1,1.07c0,.09,0,.19,0,.28,0,.39,0,.78.06,1.18,0,.63,0,1.27,0,1.91a43,43,0,0,1-1.12,9.82l0,.11a2.86,2.86,0,0,1-.07.28c-.06.28-.12.55-.19.82a.31.31,0,0,0,0,.08c-.08.32-.17.63-.27,1,0,.15-.08.29-.13.44s-.18.59-.28.88-.26.83-.41,1.23c0,.09-.07.18-.1.27l-.41,1.1c0,.1-.09.2-.13.3q-.23.57-.48,1.14c-.16.39-.34.78-.53,1.16a4.54,4.54,0,0,1-.21.45c-.16.33-.32.65-.49,1s-.37.72-.57,1.07l-.48.84c-.35.6-.71,1.19-1.09,1.77s-.82,1.23-1.25,1.82l-.33.44a43.48,43.48,0,0,1-69.82,0l-.33-.44-.31-.44c-.29-.41-.7-1-1-1.39s-.55-.86-.81-1.29-.52-.88-.76-1.33-.49-.89-.72-1.35-.43-.86-.62-1.29-.32-.67-.47-1-.37-.87-.54-1.31-.29-.75-.43-1.13L36,91.55c-.14-.39-.28-.78-.39-1.17l-.14-.44h-.3a43.56,43.56,0,0,1,.07-27h.59l-.15.44A43.22,43.22,0,0,0,33.5,77Zm0,0a42.91,42.91,0,0,0,2,12.94A42.91,42.91,0,0,1,33.5,77Z" transform="translate(-1 -1)"/><path class="cls-3" d="M33.06,76.56a42.93,42.93,0,0,0,2.11,13.38h-.12c-.09-.23-.16-.46-.23-.7a43.7,43.7,0,0,1,0-25.36c.09-.32.19-.63.3-.94h.12A43.22,43.22,0,0,0,33.06,76.56Z" transform="translate(-1 -1)"/><path class="cls-3" d="M118.7,87.28c-.16.64-.39,1.5-.6,2.17a2,2,0,0,1-.08.26Z" transform="translate(-1 -1)"/><path class="cls-3" d="M118.93,66.68l-1.06-3.74q.16.47.3.93c.07.21.13.41.18.62s.19.66.28,1S118.84,66.28,118.93,66.68Z" transform="translate(-1 -1)"/><path class="cls-2" d="M76.94,121.44a42,42,0,0,1-34-18H111A42,42,0,0,1,76.94,121.44Z" transform="translate(-1 -1)"/><path class="cls-2" d="M110,103.94a41.45,41.45,0,0,1-33.06,17,41.45,41.45,0,0,1-33.06-17H110m1.94-1h-70c7.85,11.52,20.61,19,35,19s27.15-7.48,35-19Z" transform="translate(-1 -1)"/><path class="cls-4" d="M41.32,102.06H40.06v-1.83C40.47,100.85,41.32,102.06,41.32,102.06Z" transform="translate(-1 -1)"/><path class="cls-2" d="M40.06,100.23v1.83h1.26s-.85-1.21-1.26-1.83Z" transform="translate(-1 -1)"/><path class="cls-4" d="M41.32,51.06c-.44.6-.85,1.21-1.26,1.83V51.06Z" transform="translate(-1 -1)"/><path class="cls-2" d="M41.32,51.06H40.06v1.83c.41-.62.82-1.23,1.26-1.83Z" transform="translate(-1 -1)"/><path class="cls-2" d="M76.94,17.94a59,59,0,1,1-59,59,59.07,59.07,0,0,1,59-59M36.25,95.4c.2.46.42.91.63,1.31s.48.94.73,1.37.52.93.78,1.38.55.88.84,1.32c.41.63,1.27,1.85,1.27,1.85l.3.43h71.51l.3-.41c.45-.62.88-1.25,1.28-1.86s.73-1.15,1.12-1.82l.3-.54.18-.3c.19-.35.39-.72.58-1.1s.34-.66.49-1,.17-.34.24-.51c.21-.41.39-.81.53-1.16s.34-.79.5-1.18l.09-.22,0,0,0,0,.2-.55.22-.58.06-.18,0-.06v0l.42-1.25L119,90l.69-2.44.06-.25.06-.2c0-.11.06-.23.08-.34l0-.11,0-.07v-.08l1.12-9.82v-.11c0-.8,0-1.41,0-1.94s0-.82-.07-1.26v-.08a1.28,1.28,0,0,1,0-.18c0-.37-.07-.74-.1-1.06s-.06-.5-.08-.71c0-.42-.1-.88-.18-1.36-.11-.7-.21-1.32-.32-1.86,0-.27-.1-.54-.16-.78s-.11-.55-.17-.8v-.12l-1.07-3.77c-.13-.42-.27-.84-.44-1.28a.85.85,0,0,0-.06-.17l-.16-.44-.23-.61-.08-.2c0-.11-.09-.23-.14-.34l-.3-.72c-.32-.74-.58-1.31-.84-1.82-.16-.33-.34-.67-.51-1s-.39-.74-.59-1.11-.34-.61-.55-.94c-.29-.52-.63-1.07-1-1.72s-.82-1.22-1.24-1.78a44.34,44.34,0,0,0-4.15-5L108,45.1a44.19,44.19,0,0,0-31.47-13A44.64,44.64,0,0,0,40.51,50.47c-.45.62-.89,1.27-1.29,1.88s-.7,1.08-1,1.63c-.17.29-.4.67-.59,1a33,33,0,0,0-1.55,3.09c-.12.24-.23.47-.34.73s-.31.73-.44,1.08-.3.75-.45,1.13c-.2.55-.38,1.07-.55,1.58a44.58,44.58,0,0,0-.08,27.6l.27.82.15.42c0,.12.09.24.14.4.15.39.29.78.44,1.14s.37.94.56,1.35.3.69.48,1M76.94,16.94a60,60,0,1,0,60,60,60,60,0,0,0-60-60ZM41.32,102.06s-.85-1.21-1.26-1.83q-.42-.65-.81-1.29c-.26-.44-.52-.88-.76-1.33s-.49-.89-.72-1.35-.43-.86-.62-1.29-.32-.67-.47-1-.37-.87-.54-1.31-.29-.75-.43-1.13l-.15-.41c-.13-.39-.27-.78-.39-1.17a43.56,43.56,0,0,1,.07-27c.17-.52.35-1,.54-1.54s.28-.74.43-1.1.29-.72.44-1.07.2-.45.31-.67c.46-1,1-2.06,1.53-3.05.18-.34.38-.68.58-1,.31-.55.65-1.08,1-1.61s.82-1.23,1.26-1.83a43.49,43.49,0,0,1,66-5.25l.45.45a43.52,43.52,0,0,1,4,4.83c.42.57.82,1.15,1.21,1.75s.71,1.11,1,1.68c.19.3.36.6.53.91s.4.72.58,1.08.34.66.5,1c.29.58.56,1.18.82,1.78.1.23.2.46.29.7s.15.36.23.55l.39,1a.14.14,0,0,1,0,.06c.16.43.31.86.45,1.3l1.06,3.74v0c.06.26.12.53.17.79s.11.52.16.78c.12.6.22,1.21.31,1.82.07.43.13.87.17,1.3,0,.23.06.46.08.7s.07.71.1,1.07c0,.09,0,.19,0,.28,0,.39,0,.78.06,1.18,0,.63,0,1.27,0,1.91l-1.12,9.82,0,.11a2.86,2.86,0,0,1-.07.28l-.07.25-.07.26L118,89.71l-.07.23c-.13.41-.27.82-.41,1.23,0,.09-.07.18-.1.27l-.41,1.1c0,.1-.09.2-.13.3q-.23.57-.48,1.14c-.16.39-.34.78-.53,1.16a4.54,4.54,0,0,1-.21.45c-.16.33-.32.65-.49,1s-.37.72-.57,1.07l-.48.84c-.35.6-.71,1.19-1.09,1.77s-.82,1.23-1.25,1.82Z" transform="translate(-1 -1)"/><path class="cls-1" d="M35.53,89.44a42.52,42.52,0,0,1-2-12.88,43,43,0,0,1,2-13.12h81.89l1,3.38c.06.28.12.54.17.79s.11.51.15.75c.13.63.23,1.23.32,1.83.07.43.12.86.16,1.28,0,.24.06.46.08.69s.07.72.1,1.07l0,.29q0,.56.06,1.14c0,.64,0,1.27,0,1.9l-1.12,9.76v0c0,.13,0,.19-.06.25l-.79,2.83Z" transform="translate(-1 -1)"/><path class="cls-2" d="M117.11,63.94l.85,3v0c0,.24.11.5.17.78l.15.76c.1.52.2,1.08.3,1.78.08.45.13.86.17,1.27,0,.21,0,.43.08.68s.06.69.1,1.07v.08c0,.07,0,.14,0,.17,0,.37,0,.74.06,1.16s0,1.07,0,1.79L118,86.19v0l0,.06v0a1.25,1.25,0,0,1,0,.18l-.08.26-.06.25-.54,1.93H35.9a42.61,42.61,0,0,1,.07-25h81.14m.76-1H35.24a43.56,43.56,0,0,0-.07,27H118l.07-.23.68-2.43.07-.26.07-.25a2.86,2.86,0,0,0,.07-.28l0-.11,1.12-9.82c0-.64,0-1.28,0-1.91,0-.4,0-.79-.06-1.18,0-.09,0-.19,0-.28,0-.36-.06-.72-.1-1.07s0-.47-.08-.7c0-.43-.1-.87-.17-1.3-.09-.61-.19-1.22-.31-1.82,0-.26-.1-.52-.16-.78s-.11-.53-.17-.79v0l-1.06-3.74Z" transform="translate(-1 -1)"/><path class="cls-1" d="M94.91,50.62c-18.25,0-44.77,0-52.6-.06a43,43,0,0,1,68.52,0Z" transform="translate(-1 -1)"/><path class="cls-2" d="M76.56,34.06a42.63,42.63,0,0,1,33.25,16l-14.88,0c-17.51,0-42.81,0-51.6-.06a42.66,42.66,0,0,1,33.23-16m0-1a43.43,43.43,0,0,0-35.24,18c6.27,0,34.5.06,53.61.06,7.95,0,14.33,0,16.89,0a43.44,43.44,0,0,0-35.26-18Z" transform="translate(-1 -1)"/><path class="cls-2" d="M41.83,52.06c7,0,34.47.06,53.1.06,8.29,0,13.79,0,16.38,0,.3.42.59.84.88,1.3.41.62.72,1.13,1,1.62v0l0,0c.17.28.33.56.5.86s.38.69.56,1,.33.64.5,1,.49,1,.79,1.73c.1.21.19.43.27.65v0l0,0,.13.31.07.18.2.52.15.41h0l0,.12H36.65c0-.06,0-.12.07-.19.13-.36.27-.72.42-1.09s.28-.7.43-1,.18-.42.3-.67c.46-1,1-2,1.5-3,.19-.35.39-.7.57-1,.3-.52.64-1.05,1-1.55s.64-.95.94-1.38m-.51-1c-.44.6-.85,1.21-1.26,1.83s-.68,1.06-1,1.61c-.2.33-.4.67-.58,1-.56,1-1.07,2-1.53,3.05-.11.22-.21.44-.31.67s-.3.71-.44,1.07-.29.73-.43,1.1-.37,1-.54,1.54h82.63c-.14-.44-.29-.87-.45-1.3a.14.14,0,0,0,0-.06l-.39-1c-.08-.19-.15-.37-.23-.55s-.19-.47-.29-.7c-.26-.6-.53-1.2-.82-1.78-.16-.33-.33-.66-.5-1s-.38-.72-.58-1.08-.34-.61-.53-.91c-.32-.57-.67-1.13-1-1.68s-.79-1.18-1.21-1.75c-2.56,0-8.93,0-16.89,0-19.11,0-47.34,0-53.61-.06Z" transform="translate(-1 -1)"/><path class="cls-2" d="M116.56,90.94a1.56,1.56,0,0,0-.06.15l-.2.56-.19.5a3.09,3.09,0,0,0-.14.32c-.14.37-.3.74-.47,1.11s-.33.75-.5,1.11l0,0,0,0a4.11,4.11,0,0,1-.18.38c-.15.32-.31.63-.48,1s-.37.71-.55,1l-.47.84c-.38.63-.72,1.2-1.07,1.73s-.6.91-.92,1.36H41.84c-.28-.4-.69-1-.94-1.38s-.54-.84-.79-1.25-.51-.86-.75-1.31-.47-.86-.7-1.32-.4-.8-.6-1.23v-.06c-.16-.3-.3-.62-.45-1s-.34-.82-.52-1.29-.29-.73-.42-1.1l-.09-.23h80m1.39-1H35.17c.12.39.26.78.39,1.17l.15.41c.14.38.28.76.43,1.13s.35.88.54,1.31.3.68.47,1,.4.87.62,1.29.47.91.72,1.35.5.89.76,1.33.53.86.81,1.29c.41.62,1.26,1.83,1.26,1.83H111.8c.43-.59.85-1.2,1.25-1.82s.74-1.17,1.09-1.77l.48-.84c.2-.35.39-.71.57-1.07s.33-.64.49-1a4.54,4.54,0,0,0,.21-.45c.19-.38.36-.77.53-1.16s.33-.76.48-1.14c0-.1.08-.2.13-.3l.41-1.1c0-.09.06-.18.1-.27.14-.41.28-.82.41-1.23Z" transform="translate(-1 -1)"/><path class="cls-3" d="M118.93,66.68l-1.06-3.74q.16.47.3.93c.07.21.13.41.18.62s.19.66.28,1S118.84,66.28,118.93,66.68Z" transform="translate(-1 -1)"/><path class="cls-5" d="M118.84,86.77c-.06.28-.12.55-.19.82a.31.31,0,0,0,0,.08c-.08.32-.17.63-.27,1,0,.15-.08.29-.13.44s-.08.26-.13.39a2,2,0,0,1-.08.26l.68-2.43.07-.26Z" transform="translate(-1 -1)"/><circle class="cls-6" cx="75.94" cy="75.94" r="60"/></g></g></svg>